<svg data-v-239e2d7e="" version="1.0" xmlns="http://www.w3.org/2000/svg" xmlns:xlink="http://www.w3.org/1999/xlink" width="100%" height="100%" viewBox="0 0 340.000000 250.000000" preserveAspectRatio="xMidYMid meet" color-interpolation-filters="sRGB" class="el-tooltip" style="margin: auto;"><rect data-v-239e2d7e="" x="0" y="0" width="100%" height="100%" fill="#fff" fill-opacity="1" class="background"></rect> <rect data-v-239e2d7e="" x="0" y="0" width="100%" height="100%" fill="url(#watermark)" fill-opacity="1" class="watermarklayer"></rect> <g data-v-239e2d7e="" fill="#070707" class="iconlinesvg-g iconlinesvg" transform="translate(80.23816680908203,108.85000038146973)"><g class="tp-name"><g transform="translate(0, 0)"><g fill="#070707"><path d="M10.28-0.19L10.28-0.19Q7.86-0.19 7.86-1.85L7.86-1.85L7.86-20.53L3.09-20.53Q0.99-20.53 0.99-21.89L0.99-21.89Q0.99-23.23 3.09-23.23L3.09-23.23L17.50-23.23Q19.60-23.23 19.60-21.89L19.60-21.89Q19.60-20.53 17.50-20.53L17.50-20.53L12.70-20.53L12.70-1.85Q12.70-0.19 10.28-0.19Z" transform="translate(-0.9865219019093974, 25.172220142268817)"></path></g></g><g transform="translate(22.61662298764508, 0)"><g fill="#070707"><path d="M3.98 7.13L3.98 7.13Q1.53 7.13 1.53 5.98L1.53 5.98L1.56 5.70Q1.91 4.17 2.00 4.17L2.00 4.17L3.76 4.55Q5.73 4.55 6.81 1.34L6.81 1.34L7.26-0.16Q0.92-15.94 0.92-16.23L0.92-16.23Q0.92-17.31 3.15-17.31L3.15-17.31Q5.16-17.31 5.73-15.85L5.73-15.85Q8.66-7.64 9.07-6.21L9.07-6.21L9.87-3.76L9.10-3.76L10.34-8.24L12.70-15.88Q13.11-17.31 15.18-17.31L15.18-17.31Q17.31-17.31 17.31-16.26L17.31-16.26Q17.31-16.04 17.22-15.75L17.22-15.75L11.49 0.76Q10.44 3.76 8.74 5.44Q7.03 7.13 3.98 7.13Z" transform="translate(-0.9228753275926619, 25.172220142268817)"></path></g></g><g transform="translate(43.00561587420442, 0)"><g fill="#070707"><path d="M5.16-0.19L5.16-0.19Q2.77-0.19 2.77-1.81L2.77-1.81L2.77-16.01Q2.77-17.31 4.87-17.31L4.87-17.31Q6.87-17.31 7.03-16.01L7.03-16.01L7.16-14.54L6.36-14.54Q6.97-15.66 8.43-16.71Q9.90-17.76 11.68-17.76L11.68-17.76Q12.28-17.76 12.67-17.69L12.67-17.69Q14.00-17.31 14.00-16.55L14.00-16.55L13.97-16.33Q13.59-14.48 13.49-14.48L13.49-14.48L11.23-14.86Q9.10-14.86 7.54-11.11L7.54-11.11L7.54-1.81Q7.54-0.19 5.16-0.19Z" transform="translate(-2.768625982777986, 25.172220142268817)"></path></g></g><g transform="translate(58.2392362411082, 5.650318232871584)"><g class="imagesvg"><rect fill="#070707" fill-opacity="0" stroke-width="2" x="0" y="0" width="21.576188693373272" height="21.576188693373272" class="image-rect"></rect> <svg x="0" y="0" width="21.576188693373272" height="21.576188693373272" filtersec="colorsb9530605531" class="image-svg-svg primary"><svg xmlns="http://www.w3.org/2000/svg" viewBox="0 0 100 100"><g fill="#070707"><path d="M98.217 56.19H77.641a.517.517 0 0 0-.503.4C74.75 66.697 66.684 74.77 56.576 77.144a.517.517 0 0 0-.4.503v20.576a.526.526 0 0 0 .524.524c.02 0 .041 0 .069-.006 21.797-2.912 39.054-20.17 41.966-41.973a.54.54 0 0 0-.124-.414.553.553 0 0 0-.394-.166z"></path><path d="M50.228 22.538c12.882 0 23.95 8.784 26.903 21.362a.51.51 0 0 0 .503.394H98.21c.007.007.021 0 .028 0 .29 0 .517-.235.517-.518a.61.61 0 0 0-.048-.228C95.402 19.426 74.592 1.252 50.227 1.252c-27.013 0-48.99 21.977-48.99 48.997 0 24.42 18.251 45.264 42.45 48.5.027 0 .048.007.068.007a.502.502 0 0 0 .345-.13.522.522 0 0 0 .173-.394V77.655a.517.517 0 0 0-.4-.504c-12.579-2.96-21.363-14.02-21.363-26.903.007-15.283 12.441-27.71 27.718-27.71z"></path></g></svg></svg> <!----></g></g><g transform="translate(83.2392362411082, 0)"><g fill="#070707"><path d="M12.79 0.22L12.79 0.22Q7.76 0.22 4.71-3.15L4.71-3.15Q1.81-6.33 1.81-11.65L1.81-11.65Q1.81-16.93 4.77-20.21L4.77-20.21Q7.92-23.68 12.95-23.68L12.95-23.68Q16.52-23.68 19.35-21.42L19.35-21.42Q19.63-21.16 19.63-20.84L19.63-20.84Q19.63-20.56 19.35-20.21L19.35-20.21Q18.49-19.19 17.53-19.19L17.53-19.19Q16.68-19.19 15.72-19.99L15.72-19.99Q14.48-20.84 13.02-20.84L13.02-20.84Q10.47-20.84 8.75-18.68L8.75-18.68Q6.75-16.13 6.75-11.77L6.75-11.77Q6.75-7.35 8.53-4.98Q10.31-2.61 12.92-2.61L12.92-2.61Q14.70-2.61 16.17-3.76L16.17-3.76Q17.15-4.61 18.04-4.61L18.04-4.61Q19.00-4.61 19.86-3.60L19.86-3.60Q20.11-3.34 20.11-3.06L20.11-3.06Q20.11-2.70 19.73-2.35L19.73-2.35Q16.90 0.22 12.79 0.22Z" transform="translate(-1.8139273680269565, 25.172220142268817)"></path></g></g><g transform="translate(105.53762635716961, 0)"><g fill="#070707"><path d="M10.34 0.22L10.34 0.22Q6.46 0.22 3.95-2.39L3.95-2.39Q1.53-4.84 1.53-8.72L1.53-8.72Q1.53-12.67 3.95-15.12L3.95-15.12Q6.46-17.76 10.34-17.76L10.34-17.76Q14.26-17.76 16.77-15.12L16.77-15.12Q19.16-12.67 19.16-8.72L19.16-8.72Q19.16-4.84 16.77-2.39L16.77-2.39Q14.23 0.22 10.34 0.22ZM10.34-2.39L10.34-2.39Q11.90-2.39 13.08-4.03Q14.26-5.66 14.26-8.72L14.26-8.72Q14.26-11.81 12.95-13.62L12.95-13.62Q11.90-15.12 10.34-15.12L10.34-15.12Q8.82-15.12 7.64-13.45Q6.46-11.77 6.46-8.72L6.46-8.72Q6.46-5.70 7.64-4.04Q8.82-2.39 10.34-2.39Z" transform="translate(-1.5275177836016476, 25.172220142268817)"></path></g></g><g transform="translate(127.16772744290529, 0)"><g fill="#070707"><path d="M9.39 0.22L9.39 0.22Q5.54 0.22 3.47-2.39L3.47-2.39Q1.59-4.71 1.59-8.72L1.59-8.72Q1.59-12.57 3.79-15.05L3.79-15.05Q6.14-17.76 9.67-17.76L9.67-17.76Q11.36-17.76 12.73-17.12L12.73-17.12L13.78-16.68L13.65-18.90L13.65-23.55Q13.65-25.17 16.07-25.17L16.07-25.17Q18.46-25.17 18.46-23.55L18.46-23.55L18.46-1.50Q18.46-0.19 16.33-0.19L16.33-0.19Q14.32-0.19 14.10-1.50L14.10-1.50L14.03-1.78L14.58-1.78Q12.63 0.22 9.39 0.22ZM10.25-2.42L10.25-2.42Q11.90-2.42 13.65-4.46L13.65-4.46L13.65-13.62Q12.03-15.08 10.37-15.08L10.37-15.08Q9.01-15.08 7.92-13.68L7.92-13.68Q6.52-11.81 6.52-8.78L6.52-8.78Q6.52-5.57 7.62-3.99Q8.72-2.42 10.25-2.42Z" transform="translate(-1.591164357918383, 25.172220142268817)"></path></g></g><g transform="translate(148.03406963684014, 0)"><g fill="#070707"><path d="M10.63 0.22L10.63 0.22Q6.49 0.22 3.91-2.42L3.91-2.42Q1.53-4.81 1.53-8.72L1.53-8.72Q1.53-12.54 3.88-15.05L3.88-15.05Q6.40-17.76 10.09-17.76L10.09-17.76Q14.00-17.76 16.07-15.24L16.07-15.24Q17.79-13.17 17.79-9.64L17.79-9.64Q17.79-9.20 17.73-8.66L17.73-8.66Q17.63-7.99 16.23-7.99L16.23-7.99L6.24-7.99Q6.52-5.00 7.89-3.63Q9.26-2.26 11.11-2.26L11.11-2.26Q12.38-2.26 13.52-2.77L13.52-2.77Q14.35-3.25 15.02-3.25L15.02-3.25Q16.01-3.25 16.61-2.16L16.61-2.16Q16.68-2.04 16.68-1.91L16.68-1.91Q16.68-1.50 16.10-1.15L16.10-1.15Q13.59 0.22 10.63 0.22ZM6.21-10.12L13.49-10.12Q13.49-12.89 12.52-14.08Q11.55-15.28 10.15-15.28L10.15-15.28Q8.91-15.28 7.89-14.26L7.89-14.26Q6.52-12.89 6.21-10.12L6.21-10.12Z" transform="translate(-1.5275177836016476, 25.172220142268817)"></path></g></g><g transform="translate(168.29576937476602, 0)"><g fill="#070707"><path d="M5.16-0.19L5.16-0.19Q2.77-0.19 2.77-1.81L2.77-1.81L2.77-16.01Q2.77-17.31 4.87-17.31L4.87-17.31Q6.87-17.31 7.03-16.01L7.03-16.01L7.16-14.54L6.36-14.54Q6.97-15.66 8.43-16.71Q9.90-17.76 11.68-17.76L11.68-17.76Q12.28-17.76 12.67-17.69L12.67-17.69Q14.00-17.31 14.00-16.55L14.00-16.55L13.97-16.33Q13.59-14.48 13.49-14.48L13.49-14.48L11.23-14.86Q9.10-14.86 7.54-11.11L7.54-11.11L7.54-1.81Q7.54-0.19 5.16-0.19Z" transform="translate(-2.768625982777986, 25.172220142268817)"></path></g></g></g> <!----></g></svg>